<svg xmlns="http://www.w3.org/2000/svg" xmlns:xlink="http://www.w3.org/1999/xlink" viewBox="0 0 566.9291 566.9291"> <g > <path transform="matrix(1,0,0,-1,0,566.9291)" d="M184.8359 244.7804C188.4016 244.7804 191.2649 246.2394 193.1289 248.7246L191.1572 250.5076C189.8062 248.4814 187.7264 247.1576 184.8626 247.1576 180.4595 247.1576 177.4877 250.3451 177.4877 255.0997 177.4877 259.8001 180.4323 262.9338 184.8898 262.9338 187.456 262.9338 189.4277 261.7991 190.6977 260.2324L192.5076 262.0695C190.6166 264.1496 188.0773 265.3112 184.8087 265.3112 178.6224 265.3112 174.4892 261.2319 174.4892 255.0997 174.4892 248.9136 178.6496 244.7804 184.8359 244.7804ZM216.5992 247.428V265.0408H213.7085V245.0506H225.7299V247.428ZM245.7422 267.3374H248.1194L252.6038 271.5245H249.3349ZM246.0393 245.0506H248.9298V265.0408H246.0393ZM271.4006 245.0506H274.2914L274.2372 260.1244 287.4917 245.0506H289.3062V265.0408H286.4115L286.4923 249.967 273.2105 265.0408H271.4006ZM311.7818 245.0506H314.6726V265.0408H311.7818ZM346.2199 244.7804C349.7859 244.7804 352.6492 246.2394 354.513 248.7246L352.5412 250.5076C351.1902 248.4814 349.1107 247.1576 346.2469 247.1576 341.8438 247.1576 338.872 250.3451 338.872 255.0997 338.872 259.8001 341.8166 262.9338 346.2741 262.9338 348.8403 262.9338 350.8121 261.7991 352.082 260.2324L353.8919 262.0695C352.0006 264.1496 349.4616 265.3112 346.1927 265.3112 340.0067 265.3112 335.8735 261.2319 335.8735 255.0997 335.8735 248.9136 340.0339 244.7804 346.2199 244.7804ZM389.3834 245.0506H392.436L383.7917 265.0408H381.117L372.4458 245.0506H375.5256L377.4974 249.6971H387.4385ZM378.4969 252.0746 382.468 261.5023 386.4387 252.0746Z" fill="#0787bd"/> <path transform="matrix(1,0,0,-1,0,566.9291)" d="M131.6832 125.5867C135.3827 125.5867 137.8888 127.472 137.8888 130.2644 137.8888 133.4146 134.8577 134.5601 132.3998 135.3002L131.0868 135.7061C129.1062 136.2787 127.3158 137.0659 127.3158 139.2378 127.3158 141.2904 129.1062 142.6986 131.8269 142.6986 133.8313 142.6986 135.3586 142.054 136.5758 140.813L137.1966 141.6963C135.9556 142.9611 134.3086 143.7248 131.8745 143.7248 128.3423 143.7248 126.0275 141.863 126.0275 139.0708 126.0275 136.3501 128.0798 135.2764 130.4184 134.608L131.6597 134.2264C134.5473 133.367 136.5758 132.3646 136.5758 130.1689 136.5758 128.0208 134.5952 126.6131 131.5641 126.6131 129.6788 126.6131 127.9604 127.1619 126.6715 128.4744L126.123 127.5911C127.3635 126.2069 129.4877 125.5867 131.6832 125.5867ZM145.3348 138.5938C143.4016 138.5938 141.9698 137.9492 140.9193 136.8275L141.4684 136.0877C142.3755 137.0903 143.5209 137.6388 145.12 137.6388 147.5546 137.6388 149.1293 136.0159 149.1293 133.5101V132.3882C147.8645 132.7224 146.4565 132.8896 145.1438 132.8896 142.113 132.8896 140.108 131.3864 140.108 129.1428 140.108 126.9947 141.7314 125.5867 144.1417 125.5867 146.3136 125.5867 148.2704 126.8042 149.1293 128.8565V128.5937L149.1537 125.8254H150.2748V133.725C150.2748 136.6367 148.3418 138.5938 145.3348 138.5938ZM144.4516 126.47C142.5427 126.47 141.3255 127.5437 141.3255 129.1666 141.3255 130.8847 142.9007 132.0304 145.2872 132.0304 146.5282 132.0304 147.9124 131.8635 149.1293 131.5293 149.1293 128.2839 146.6235 126.47 144.4516 126.47ZM163.3056 144.0828H161.8021L158.7472 140.6225H159.7978ZM163.7354 138.3551V130.718C163.7354 128.2357 162.0408 126.5893 159.4874 126.5893 156.9339 126.5893 155.2394 128.2357 155.2394 130.718V138.3551H154.0936V130.4314C154.0936 127.5437 156.1218 125.5867 159.1532 125.5867 161.5161 125.5867 163.0193 126.5893 163.7354 128.2119L163.7592 125.8254H164.8809V138.3551ZM179.4869 144.4408V135.2047C178.6754 137.2334 176.9332 138.5938 174.1646 138.5938 170.6085 138.5938 168.1506 135.9683 168.1506 132.0545 168.1506 128.1883 170.6085 125.5867 174.1646 125.5867 176.9332 125.5867 178.6754 126.9471 179.4869 128.9517V128.7848L179.5105 125.8254H180.6324V144.4408ZM174.4274 126.5893C171.3725 126.5893 169.3675 128.7609 169.3675 132.0545 169.3675 135.3719 171.3725 137.5911 174.4274 137.5911 177.4582 137.5911 179.4869 135.3719 179.4869 132.0783 179.4869 128.7848 177.4582 126.5893 174.4274 126.5893ZM195.5007 132.2453C195.5007 136.0397 193.1859 138.5938 189.7254 138.5938 186.2408 138.5938 183.926 136.0159 183.926 132.126 183.926 128.2119 186.2646 125.5867 189.773 125.5867 191.9208 125.5867 193.8061 126.5411 195.071 128.355L194.2121 128.9041C193.1383 127.472 191.5869 126.5173 189.7492 126.5173 187.0285 126.5173 185.3101 128.5699 185.167 131.6486H195.5007ZM189.7254 137.6388C192.422 137.6388 194.1883 135.6344 194.3076 132.5081H185.1432C185.2625 135.6344 187.0047 137.6388 189.7254 137.6388ZM196.6462 122.3649H197.8393L199.7011 127.3289H198.2928ZM220.6077 132.2453C220.6077 136.0397 218.2927 138.5938 214.8324 138.5938 211.3478 138.5938 209.0327 136.0159 209.0327 132.126 209.0327 128.2119 211.3716 125.5867 214.8797 125.5867 217.0278 125.5867 218.9132 126.5411 220.178 128.355L219.3191 128.9041C218.2453 127.472 216.6936 126.5173 214.8562 126.5173 212.1352 126.5173 210.4169 128.5699 210.274 131.6486H220.6077ZM214.8324 137.6388C217.529 137.6388 219.2953 135.6344 219.4146 132.5081H210.2502C210.3695 135.6344 212.1114 137.6388 214.8324 137.6388ZM227.1472 125.5867C229.9394 125.5867 231.6813 126.9947 231.6813 129.0711 231.6813 131.076 229.9394 132.0066 228.1493 132.5319L226.6696 132.961C225.2378 133.367 224.1641 133.9634 224.1641 135.3002 224.1641 136.7323 225.4289 137.6388 227.2666 137.6388 228.5314 137.6388 229.7007 137.3763 230.7506 136.6843L231.2759 137.5194C230.0822 138.2596 228.7936 138.5938 227.1711 138.5938 224.6649 138.5938 222.9704 137.2096 222.9704 135.157 222.9704 133.2952 224.3072 132.5319 226.2166 131.9828L227.6719 131.5531C229.271 131.0995 230.4884 130.3121 230.4884 128.9996 230.4884 127.5199 229.1516 126.5173 227.1472 126.5173 225.8342 126.5173 224.5456 126.8042 223.5433 127.5911L223.018 126.8515C223.9013 126.0164 225.4289 125.5867 227.1472 125.5867ZM238.9368 126.5893C237.505 126.5893 236.5265 127.5911 236.5265 129.0711V137.3763H241.3709V138.3551H236.5265V142.0302H235.3808V138.3551H233.1374V137.3763H235.3808V128.8565C235.3808 126.8991 236.6694 125.5867 238.6026 125.5867 239.7719 125.5867 240.7745 125.7299 241.562 126.0879V127.0426C240.7031 126.7322 239.8436 126.5893 238.9368 126.5893ZM252.4927 144.0828H250.9892L247.9343 140.6225H248.9842ZM254.4497 132.2453C254.4497 136.0397 252.1349 138.5938 248.6744 138.5938 245.1898 138.5938 242.875 136.0159 242.875 132.126 242.875 128.2119 245.2136 125.5867 248.722 125.5867 250.8701 125.5867 252.7551 126.5411 254.02 128.355L253.1611 128.9041C252.0873 127.472 250.5359 126.5173 248.6982 126.5173 245.9775 126.5173 244.2591 128.5699 244.116 131.6486H254.4497ZM248.6744 137.6388C251.371 137.6388 253.1373 135.6344 253.2566 132.5081H244.0922C244.2115 135.6344 245.9537 137.6388 248.6744 137.6388ZM261.5377 126.5893C260.1062 126.5893 259.1274 127.5911 259.1274 129.0711V137.3763H263.9718V138.3551H259.1274V142.0302H257.982V138.3551H255.7383V137.3763H257.982V128.8565C257.982 126.8991 259.2706 125.5867 261.2035 125.5867 262.3731 125.5867 263.3754 125.7299 264.1632 126.0879V127.0426C263.3043 126.7322 262.4448 126.5893 261.5377 126.5893ZM267.0032 141.9347C267.5047 141.9347 267.8862 142.3165 267.8862 142.818 267.8862 143.2953 267.5047 143.6769 267.0032 143.6769 266.5259 143.6769 266.1443 143.2953 266.1443 142.818 266.1443 142.3165 266.5259 141.9347 267.0032 141.9347ZM266.4541 125.8254H267.5996V138.3551H266.4541ZM277.1226 125.5867C278.9127 125.5867 280.4635 126.1358 281.5617 127.2334L280.8933 128.0208C279.9145 127.0426 278.6023 126.5893 277.2417 126.5893 274.163 126.5893 272.1345 128.7848 272.1345 132.0783 272.1345 135.3957 274.163 137.5911 277.1943 137.5911 278.5068 137.5911 279.5329 137.2334 280.5117 136.4457L281.2037 137.2569C280.082 138.1402 278.8172 138.5938 277.2181 138.5938 273.4234 138.5938 270.9176 135.9921 270.9176 132.1021 270.9176 128.1883 273.3993 125.5867 277.1226 125.5867ZM288.5542 138.5938C286.6209 138.5938 285.1894 137.9492 284.1389 136.8275L284.6877 136.0877C285.5948 137.0903 286.7403 137.6388 288.3393 137.6388 290.774 137.6388 292.3486 136.0159 292.3486 133.5101V132.3882C291.0838 132.7224 289.6758 132.8896 288.3631 132.8896 285.3323 132.8896 283.3274 131.3864 283.3274 129.1428 283.3274 126.9947 284.9508 125.5867 287.3611 125.5867 289.533 125.5867 291.4897 126.8042 292.3486 128.8565V128.5937L292.373 125.8254H293.4944V133.725C293.4944 136.6367 291.5612 138.5938 288.5542 138.5938ZM287.6709 126.47C285.762 126.47 284.5449 127.5437 284.5449 129.1666 284.5449 130.8847 286.1201 132.0304 288.5066 132.0304 289.7478 132.0304 291.132 131.8635 292.3486 131.5293 292.3486 128.2839 289.8428 126.47 287.6709 126.47ZM314.7111 132.2453C314.7111 136.0397 312.3964 138.5938 308.9358 138.5938 305.4512 138.5938 303.1364 136.0159 303.1364 132.126 303.1364 128.2119 305.475 125.5867 308.9835 125.5867 311.1313 125.5867 313.0166 126.5411 314.2814 128.355L313.4225 128.9041C312.3488 127.472 310.7974 126.5173 308.9597 126.5173 306.239 126.5173 304.5206 128.5699 304.3774 131.6486H314.7111ZM308.9358 137.6388C311.6324 137.6388 313.3987 135.6344 313.518 132.5081H304.3536C304.473 135.6344 306.2151 137.6388 308.9358 137.6388ZM330.821 138.5938C328.0521 138.5938 326.3102 137.2334 325.4987 135.2047V144.4408H324.3532V125.8254H325.4749L325.4987 128.7848V128.9517C326.3102 126.9471 328.0521 125.5867 330.821 125.5867 334.3771 125.5867 336.835 128.1883 336.835 132.0545 336.835 135.9683 334.3771 138.5938 330.821 138.5938ZM330.5582 126.5893C327.5274 126.5893 325.4987 128.7848 325.4987 132.0783 325.4987 135.3719 327.5274 137.5911 330.5582 137.5911 333.6131 137.5911 335.6419 135.3719 335.6419 132.0545 335.6419 128.7609 333.6131 126.5893 330.5582 126.5893ZM350.8682 132.2453C350.8682 136.0397 348.5531 138.5938 345.0929 138.5938 341.6083 138.5938 339.2932 136.0159 339.2932 132.126 339.2932 128.2119 341.6321 125.5867 345.1402 125.5867 347.2883 125.5867 349.1736 126.5411 350.4385 128.355L349.5796 128.9041C348.5058 127.472 346.9541 126.5173 345.1167 126.5173 342.3957 126.5173 340.6774 128.5699 340.5345 131.6486H350.8682ZM345.0929 137.6388C347.7895 137.6388 349.5557 135.6344 349.6751 132.5081H340.5107C340.63 135.6344 342.3719 137.6388 345.0929 137.6388ZM368.2905 138.5938C365.9992 138.5938 364.5196 137.4245 363.8511 135.7061 363.1592 137.4718 361.5602 138.5938 359.4359 138.5938 357.264 138.5938 355.8563 137.615 355.1641 136.0397L355.1403 138.3551H354.0186V125.8254H355.1641V133.4625C355.1641 135.9448 356.7393 137.5911 359.1017 137.5911 361.4647 137.5911 363.0399 135.9448 363.0399 133.4625V125.8254H364.1854V133.4625C364.1854 135.9448 365.7606 137.5911 368.123 137.5911 370.4621 137.5911 372.0373 135.9448 372.0373 133.4625V125.8254H373.1828V133.725C373.1828 136.6605 371.226 138.5938 368.2905 138.5938ZM394.3998 132.2453C394.3998 136.0397 392.0848 138.5938 388.6245 138.5938 385.1399 138.5938 382.8251 136.0159 382.8251 132.126 382.8251 128.2119 385.1637 125.5867 388.6722 125.5867 390.82 125.5867 392.7053 126.5411 393.9701 128.355L393.1112 128.9041C392.0374 127.472 390.486 126.5173 388.6483 126.5173 385.9274 126.5173 384.2093 128.5699 384.0661 131.6486H394.3998ZM388.6245 137.6388C391.3211 137.6388 393.0874 135.6344 393.2067 132.5081H384.0423C384.1617 135.6344 385.9038 137.6388 388.6245 137.6388ZM400.9394 125.5867C403.7315 125.5867 405.4737 126.9947 405.4737 129.0711 405.4737 131.076 403.7315 132.0066 401.9414 132.5319L400.4617 132.961C399.03 133.367 397.9562 133.9634 397.9562 135.3002 397.9562 136.7323 399.221 137.6388 401.0587 137.6388 402.3235 137.6388 403.4928 137.3763 404.5428 136.6843L405.068 137.5194C403.8746 138.2596 402.586 138.5938 400.9632 138.5938 398.4571 138.5938 396.7625 137.2096 396.7625 135.157 396.7625 133.2952 398.0993 132.5319 400.0088 131.9828L401.4641 131.5531C403.0631 131.0995 404.2806 130.3121 404.2806 128.9996 404.2806 127.5199 402.9437 126.5173 400.9394 126.5173 399.6266 126.5173 398.338 126.8042 397.3354 127.5911L396.8101 126.8515C397.6934 126.0164 399.221 125.5867 400.9394 125.5867ZM412.7289 126.5893C411.2972 126.5893 410.3186 127.5911 410.3186 129.0711V137.3763H415.1631V138.3551H410.3186V142.0302H409.1732V138.3551H406.9295V137.3763H409.1732V128.8565C409.1732 126.8991 410.4618 125.5867 412.3947 125.5867 413.564 125.5867 414.5666 125.7299 415.3541 126.0879V127.0426C414.4952 126.7322 413.636 126.5893 412.7289 126.5893ZM421.7264 138.5938C419.7934 138.5938 418.3617 137.9492 417.3111 136.8275L417.8602 136.0877C418.767 137.0903 419.9128 137.6388 421.5115 137.6388 423.9462 137.6388 425.5211 136.0159 425.5211 133.5101V132.3882C424.2563 132.7224 422.8483 132.8896 421.5353 132.8896 418.5048 132.8896 416.4999 131.3864 416.4999 129.1428 416.4999 126.9947 418.123 125.5867 420.5336 125.5867 422.7052 125.5867 424.6622 126.8042 425.5211 128.8565V128.5937L425.5452 125.8254H426.6666V133.725C426.6666 136.6367 424.7334 138.5938 421.7264 138.5938ZM420.8434 126.47C418.9346 126.47 417.7171 127.5437 417.7171 129.1666 417.7171 130.8847 419.2923 132.0304 421.6791 132.0304 422.9201 132.0304 424.3042 131.8635 425.5211 131.5293 425.5211 128.2839 423.015 126.47 420.8434 126.47ZM431.7741 135.9448 431.7503 138.3551H430.6286V125.8254H431.7741V133.2952C431.7741 135.8966 433.5642 137.5438 436.786 137.5438L436.8815 138.5938C434.3275 138.5938 432.5854 137.7581 431.7741 135.9448ZM439.5061 129.2621H440.5567L440.6519 143.4864H439.4106ZM440.0314 125.5867C440.5088 125.5867 440.8903 125.9685 440.8903 126.4456 440.8903 126.9471 440.5088 127.3051 440.0314 127.3051 439.5305 127.3051 439.1719 126.9471 439.1719 126.4456 439.1719 125.9685 439.5305 125.5867 440.0314 125.5867" fill="#004a78"/> <path transform="matrix(1,0,0,-1,0,566.9291)" d="M107.0396 218.5688H81.1604V160.7122H107.0396C124.397 160.7122 135.968 172.3618 135.968 189.7968 135.968 207.076 124.397 218.5688 107.0396 218.5688ZM107.4305 174.0033H97.2666V205.2777H107.4305C114.5455 205.2777 119.3145 199.101 119.3145 189.7968 119.3145 180.3368 114.5455 174.0033 107.4305 174.0033ZM144.5686 160.7122H160.6745V218.5688H144.5686ZM188.5085 174.0033V218.5688H172.4023V160.7122H212.2767V174.0033ZM264.8951 237.3333H246.9906L235.9667 223.8075H249.1016ZM245.6614 219.3508C229.5553 219.3508 218.7658 209.8125 218.7658 195.4261V160.7122H234.8722V188.1553H256.3727V160.7122H272.4792V195.4261C272.4792 209.8125 261.7676 219.3508 245.6614 219.3508ZM234.8722 188.1553V194.8005C234.8722 201.5246 239.1721 206.0595 245.74 206.0595 252.0726 206.0595 256.3727 201.5246 256.3727 194.8005V188.1553ZM304.2221 159.9301C318.3735 159.9301 327.9124 167.2798 327.9124 178.382 327.9124 188.8586 318.6862 194.4099 309.1479 196.9121L306.4895 197.6153C301.3294 198.9448 297.6545 200.0392 297.6545 202.7758 297.6545 204.8085 300.2349 206.0595 304.3786 206.0595 309.3043 206.0595 313.6042 204.5738 318.1391 201.5246L325.0976 212.7053C318.53 217.3961 311.1026 219.3508 304.1442 219.3508 290.2272 219.3508 281.001 211.6103 281.001 200.1175 281.001 190.188 288.4289 185.8093 299.2966 182.9951L302.0332 182.2912C307.6622 180.8056 311.2588 179.7109 311.2588 176.8181 311.2588 174.2383 308.6787 173.2218 303.3621 173.2218 298.671 173.2218 293.2764 174.551 287.8815 178.4602L281.9392 167.6704C287.9595 162.7449 295.7 159.9301 304.2221 159.9301ZM365.5976 159.9301C376.5433 159.9301 385.2221 163.7612 391.2423 171.8923L380.4525 181.5874C377.1689 176.271 373.0252 173.2218 365.9888 173.2218 356.4499 173.2218 350.0391 179.7891 350.0391 189.7186 350.0391 199.4919 356.2155 206.0595 365.5193 206.0595 371.4613 206.0595 376.5433 203.6356 379.1237 199.8048L389.2093 210.1252C383.1891 216.6928 374.9017 219.3508 365.4411 219.3508 346.2077 219.3508 333.3855 207.6231 333.3855 189.8751 333.3855 171.9706 346.3642 159.9301 365.5976 159.9301ZM397.4973 160.7122H413.6034V218.5688H397.4973ZM454.0249 159.9301C473.0238 159.9301 485.7681 171.8144 485.7681 189.6403 485.7681 207.4666 473.0238 219.3508 454.0249 219.3508 434.8698 219.3508 422.1255 207.4666 422.1255 189.6403 422.1255 171.8144 434.8698 159.9301 454.0249 159.9301ZM454.0249 173.2218C444.8775 173.2218 438.7791 179.7891 438.7791 189.6403 438.7791 199.4919 444.8775 206.0595 454.0249 206.0595 463.0944 206.0595 469.1928 199.4919 469.1928 189.6403 469.1928 179.7891 463.0944 173.2218 454.0249 173.2218" fill="#004a78"/> <path transform="matrix(1,0,0,-1,0,566.9291)" d="M276.1792 359.2698C268.1606 355.771 263.7085 351.716 256.6766 337.0482 253.2098 329.8161 248.8085 315.678 245.0234 310.8711 231.6521 324.726 188.2814 447.1421 236.2521 430.6003 248.7124 426.3032 265.6142 408.2 276.1044 427.2344 259.0571 427.7268 254.0339 437.5497 239.9233 442.5695 222.7623 448.6748 209.408 439.971 204.7209 427.2265 193.7942 397.5165 218.122 330.1551 233.4986 305.2511 236.5787 300.2615 241.3627 294.0565 249.6022 297.6775 257.2478 301.0374 260.3041 316.366 267.4145 331.0112 270.4524 337.2681 270.4294 339.245 275.6222 344.2663 280.2756 348.7663 293.3135 351.3277 297.5437 347.8269 295.2198 359.9824 284.2946 362.8108 276.1792 359.2698" fill="#0787bd" fill-rule="evenodd"/> <path transform="matrix(1,0,0,-1,0,566.9291)" d="M237.1748 415.766C237.9977 398.7266 262.7203 391.4011 287.7922 406.1401 296.8869 411.4874 325.878 437.3901 339.7 429.6685 354.4656 421.42 345.8115 379.8235 334.7731 348.391 338.241 346.6624 342.2809 345.9512 346.7727 346.0425 352.4992 361.6019 357.3051 378.2812 359.257 394.4018 364.0314 433.8346 345.3831 456.2425 309.8764 435.905 293.1534 426.3265 277.0081 409.242 257.7056 409.0759 247.775 408.9906 243.7328 413.4112 237.1748 415.766ZM328.1136 331.2876C324.0771 321.9846 320.2719 315.1329 317.6949 312.7997 310.9161 314.5076 303.4091 328.5094 299.9523 335.2819L294.3111 343.8371C293.5111 327.6147 310.5371 264.9036 333.4507 314.2837 335.4052 318.4954 337.4113 322.9532 339.4043 327.6009 335.3641 327.7783 331.6025 329.0145 328.1136 331.2876" fill="#004a78" fill-rule="evenodd"/> <path transform="matrix(1,0,0,-1,0,566.9291)" d="M357.8732 358.5648C363.2879 362.8327 371.4803 360.5068 376.2791 357.2237 382.0895 353.2484 383.2214 345.1425 383.9956 347.4788 385.6606 352.4995 384.3862 360.4535 379.7289 363.6196 376.5886 365.754 374.2271 366.8193 370.5114 366.7178 362.7757 366.5075 359.2383 363.28 357.8732 358.5648" fill="#0787bd" fill-rule="evenodd"/> <path transform="matrix(1,0,0,-1,0,566.9291)" d="M307.5321 364.1468C309.9073 347.0202 324.5837 335.5379 336.3602 332.6851 345.9977 330.3499 357.7283 333.3501 366.4457 340.0784 376.4599 347.8073 378.5088 356.5837 379.2753 361.5375L375.8712 363.0784C375.8712 362.1087 373.21 365.2492 371.118 364.0952 369.5788 363.2465 368.4835 358.0648 368.2845 357.4386 365.089 347.3824 352.0261 342.0618 342.6364 342.0618 328.4583 342.0618 315.3898 353.4335 307.5321 364.1468" fill="#0787bd" fill-rule="evenodd"/> </g> </svg>